<svg id="Capa_1" data-name="Capa 1" xmlns="http://www.w3.org/2000/svg" viewBox="0 0 85.99 85.99"><defs><style>.cls-1{fill:#fff;}</style></defs><title>Zeichenfläche 1</title><path class="cls-1" d="M78,30.88a4.87,4.87,0,1,0,4.87,4.87A4.88,4.88,0,0,0,78,30.88Zm-70,0a4.87,4.87,0,1,0,4.87,4.87A4.88,4.88,0,0,0,8,30.88ZM63.5,22a7.25,7.25,0,1,0,7.25,7.25A7.24,7.24,0,0,0,63.5,22ZM86,66.09H77.73V50.9a14.16,14.16,0,0,0-2-7.15A7.89,7.89,0,0,1,86,51.39ZM22.48,22a7.25,7.25,0,1,0,7.24,7.25A7.26,7.26,0,0,0,22.48,22ZM8,43.39a8.08,8.08,0,0,1,2.25.36,14,14,0,0,0-2,7.15V66.09H0V51.39A8,8,0,0,1,8,43.39ZM43,7.56A10.71,10.71,0,1,0,53.7,18.27,10.72,10.72,0,0,0,43,7.56ZM75.08,71.74H62.44V48.63a19.17,19.17,0,0,0-2.2-8.79,11.41,11.41,0,0,1,3.27-.52A11.58,11.58,0,0,1,75.08,50.9ZM23.54,48.63V71.74H10.91V50.9A11.59,11.59,0,0,1,22.49,39.32a11.28,11.28,0,0,1,3.25.52A19.17,19.17,0,0,0,23.54,48.63Zm2.65,29.8h33.6V48.63a16.8,16.8,0,1,0-33.6,0Z"/></svg>