<svg id="Capa_1" data-name="Capa 1" xmlns="http://www.w3.org/2000/svg" viewBox="0 0 31.36 31.36"><defs><style>.cls-1{fill:#fff;}</style></defs><title>Zeichenfläche 1</title><path class="cls-1" d="M15.26,0C20.68,0,26,2.5,26,8.47c0,5.51-6.31,7.63-7.67,9.62-1,1.48-.68,3.57-3.48,3.57a2.7,2.7,0,0,1-2.71-2.84c0-5.05,7.42-6.19,7.42-10.35,0-2.28-1.53-3.64-4.07-3.64-5.42,0-3.31,5.59-7.41,5.59A2.53,2.53,0,0,1,5.34,7.84C5.34,3.68,10.08,0,15.26,0ZM15,24.41a3.48,3.48,0,1,1-3.47,3.47A3.49,3.49,0,0,1,15,24.41Z"/></svg>