<svg id="Capa_1" data-name="Capa 1" xmlns="http://www.w3.org/2000/svg" viewBox="0 0 23.38 23.38"><defs><style>.cls-1{fill:#fff;}</style></defs><title>Zeichenfläche 1</title><path class="cls-1" d="M14.58,15.18a2.16,2.16,0,0,1,1.94-1.12,1.17,1.17,0,0,0,1.3-1.3,2.15,2.15,0,0,1,1.11-1.93,1.17,1.17,0,0,0,.48-1.77,2.15,2.15,0,0,1,0-2.24,1.17,1.17,0,0,0-.48-1.77,2.14,2.14,0,0,1-1.11-1.93,1.17,1.17,0,0,0-1.3-1.3A2.16,2.16,0,0,1,14.58.7,1.16,1.16,0,0,0,12.81.23a2.18,2.18,0,0,1-2.23,0A1.17,1.17,0,0,0,8.8.7,2.13,2.13,0,0,1,6.87,1.82a1.17,1.17,0,0,0-1.3,1.3A2.14,2.14,0,0,1,4.45,5.05,1.16,1.16,0,0,0,4,6.82,2.15,2.15,0,0,1,4,9.06a1.16,1.16,0,0,0,.47,1.77,2.14,2.14,0,0,1,1.12,1.93,1.17,1.17,0,0,0,1.3,1.3A2.15,2.15,0,0,1,8.8,15.18a1.16,1.16,0,0,0,1.77.47,2.19,2.19,0,0,1,2.24,0A1.16,1.16,0,0,0,14.58,15.18Zm-2.89-2.57a4.67,4.67,0,1,1,4.68-4.67A4.67,4.67,0,0,1,11.69,12.61Z"/><path class="cls-1" d="M6.79,14.75c-.89,0-1-.42-1-.42L2.27,21.22l2.81-.31,1.55,2.34s3.25-6.76,3.25-6.72C8.2,16.49,8.86,14.79,6.79,14.75Z"/><path class="cls-1" d="M17.56,14.6c-2.56.27-2,.91-2.62,1.4a1.82,1.82,0,0,1-1.52.58l4,6.8,1-2.52,2.76.36Z"/><polygon class="cls-1" points="12.67 6.91 11.69 4.93 10.71 6.91 8.52 7.23 10.11 8.77 9.73 10.95 11.69 9.93 13.65 10.95 13.28 8.77 14.86 7.23 12.67 6.91"/></svg>