<svg id="Ebene_1" data-name="Ebene 1" xmlns="http://www.w3.org/2000/svg" viewBox="0 0 189.42 185.44"><defs><style>.cls-1{fill:#878787;}.cls-2{fill:#009fe3;}.cls-3{fill:#f9b233;}.cls-4{fill:#82368c;}.cls-5{fill:#95c11f;}</style></defs><title>Logo_Commusity_OC</title><path class="cls-1" d="M98.88,173.78a76.54,76.54,0,0,1,0-153.08,75.64,75.64,0,0,1,41.93,12.51c2.61-4.5,5.15-9.3,7.56-14.46a92.72,92.72,0,1,0-.27,157.14c-2.45-5.15-5-9.92-7.63-14.41A75.6,75.6,0,0,1,98.88,173.78Z" transform="translate(-6.27 -4.52)"/><path class="cls-2" d="M87.63,104.87c20.87,8.72,46.69,27.57,66,68.13a89.84,89.84,0,0,0,32.48-35.56c-41.45-21.64-74.49-31.61-97.42-36.16A18.83,18.83,0,0,1,87.63,104.87Z" transform="translate(-6.27 -4.52)"/><path class="cls-3" d="M89.06,97.63a19.06,19.06,0,0,1-.36,3.65c22.93,4.55,56,14.52,97.42,36.16a89.1,89.1,0,0,0,9.57-39.86l-106.63,0Z" transform="translate(-6.27 -4.52)"/><path class="cls-4" d="M187.59,59.91C158.77,79.73,118,89.24,88.66,93.74a19.23,19.23,0,0,1,.4,3.89l106.63,0v-.43A89.1,89.1,0,0,0,187.59,59.91Z" transform="translate(-6.27 -4.52)"/><path class="cls-5" d="M187.59,59.91A89.84,89.84,0,0,0,153.9,21.47c-19,40.68-45.33,59.66-66.45,68.5a19.29,19.29,0,0,1,1.21,3.77C118,89.24,158.77,79.73,187.59,59.91Z" transform="translate(-6.27 -4.52)"/><path class="cls-1" d="M89.06,97.63a19.14,19.14,0,1,0-1.43,7.24,18.83,18.83,0,0,0,1.07-3.59,19.06,19.06,0,0,0,.36-3.65Zm-9.2.53-14,9.56a.69.69,0,0,1-.36.11.63.63,0,0,1-.3-.07.64.64,0,0,1-.34-.57V88.07a.64.64,0,0,1,.34-.56.65.65,0,0,1,.66,0l14,9.56a.64.64,0,0,1,.28.52A.66.66,0,0,1,79.86,98.16Z" transform="translate(-6.27 -4.52)"/></svg>